Motion_kv04_j
version=1
nRows=8
nColumns=43
inDegrees=yes
endheader
time	pelvis_tilt	pelvis_list	pelvis_rotation	pelvis_tx	pelvis_ty	pelvis_tz	hip_flexion_r	hip_adduction_r	hip_rotation_r	knee_angle_r	ankle_angle_r	subtalar_angle_r	mtp_angle_r	hip_flexion_l	hip_adduction_l	hip_rotation_l	knee_angle_l	ankle_angle_l	subtalar_angle_l	mtp_angle_l	lumbar_extension	lumbar_bending	lumbar_rotation	neck_flexion	neck_lateral_bending	neck_rotation	arm_flex_r	arm_add_r	arm_rot_r	elbow_flex_r	pro_sup_r	wrist_flex_r	wrist_dev_r	hand_finger_flex_r	arm_flex_l	arm_add_l	arm_rot_l	elbow_flex_l	pro_sup_l	wrist_flex_l	wrist_dev_l	hand_finger_flex_l
      1.42250000	      0.08267660	     20.79463612	    -89.85772534	     -0.04272823	      0.86183437	      0.71482583	     -8.95684892	     -6.56223211	     -6.72339997	    -12.98165473	     -6.21831737	     18.69526482	     50.77107960	     -8.11564391	    -10.65429284	    -11.82958281	    -13.12259058	    -15.88745977	     31.26837197	     59.99999993	    -12.03160087	     -0.79955675	     -0.22489629	    -12.08517797	      1.27136193	     -3.36454982	    -11.62990573	    -41.39783088	    -14.07014317	    125.37965166	    152.28450623	     -5.07744897	    -12.98020159	     41.89322875	    -16.24610474	    -39.65059812	    -19.69994347	    124.02207199	    157.77154124	    -17.24895190	     -9.25346973	     33.15831415
      1.42500000	      0.08245866	     20.79259134	    -89.85790100	     -0.04269919	      0.86195674	      0.71462367	     -8.95641258	     -6.56239320	     -6.72349657	    -12.98099989	     -6.21838568	     18.69517122	     50.77106778	     -8.11503240	    -10.65471750	    -11.82970552	    -13.12195895	    -15.88747801	     31.26843123	     59.99999993	    -12.03054081	     -0.80007570	     -0.22499273	    -12.08494169	      1.27118152	     -3.36458788	    -11.62915989	    -41.39797544	    -14.07019356	    125.37896559	    152.28449263	     -5.07735403	    -12.98009935	     41.89320126	    -16.24560866	    -39.65080500	    -19.69979728	    124.02150962	    157.77158301	    -17.24863902	     -9.25337920	     33.15862187
      1.42750000	      0.09525018	     20.79742355	    -89.85295150	     -0.04267273	      0.86276347	      0.71336161	     -8.85389770	     -6.57312975	     -6.69644674	    -12.94185027	     -6.30603443	     18.67281526	     50.76666452	     -7.98247344	    -10.64576173	    -11.80679862	    -13.12982216	    -15.94751773	     31.30374153	     59.99999993	    -12.14543618	     -0.81302215	     -0.23937651	    -11.88551722	      1.21268381	     -3.38323078	    -11.18565319	    -41.37730678	    -13.86779265	    125.15985919	    152.26081596	     -5.02147222	    -12.98890162	     41.87394279	    -15.82006903	    -39.69262616	    -19.49699009	    123.84976020	    157.77935008	    -17.09569286	     -9.24119119	     33.28573009
      1.43000000	      0.09429111	     20.79377394	    -89.85326241	     -0.04263712	      0.86286979	      0.71315286	     -8.85341120	     -6.57384952	     -6.69644748	    -12.94151491	     -6.30615802	     18.67269785	     50.76665781	     -7.98236270	    -10.64648104	    -11.80672243	    -13.12970501	    -15.94760648	     31.30375380	     59.99999993	    -12.14284468	     -0.81375066	     -0.23977157	    -11.88539398	      1.21252796	     -3.38328926	    -11.18534236	    -41.37765873	    -13.86814128	    125.15946579	    152.26078485	     -5.02139113	    -12.98879478	     41.87398221	    -15.81996850	    -39.69286412	    -19.49710096	    123.84930709	    157.77933582	    -17.09537870	     -9.24105734	     33.28612010
      1.43250000	      0.09045965	     20.77241487	    -89.85172498	     -0.04256360	      0.86356648	      0.71207194	     -8.75420795	     -6.58084769	     -6.66340185	    -12.98014411	     -6.41055502	     18.65145550	     50.76645771	     -7.87550291	    -10.65460946	    -11.75268326	    -13.18664230	    -16.00105380	     31.32788281	     59.99999993	    -12.25082389	     -0.80501795	     -0.24484375	    -11.77196201	      1.15369338	     -3.40593328	    -10.81037075	    -41.41971280	    -13.70187227	    124.97154587	    152.22329030	     -4.94379680	    -12.99910988	     41.88010372	    -15.46694475	    -39.73921712	    -19.33098978	    123.70679448	    157.76261287	    -16.90842478	     -9.21502091	     33.47422755
      1.43500000	      0.08918775	     20.76858162	    -89.85207708	     -0.04252670	      0.86366773	      0.71185494	     -8.75368679	     -6.58140247	     -6.66345113	    -12.97972692	     -6.41061046	     18.65134853	     50.76646357	     -7.87567649	    -10.65517175	    -11.75265269	    -13.18655387	    -16.00105518	     31.32785234	     59.99999993	    -12.24777637	     -0.80595221	     -0.24538403	    -11.77173834	      1.15351640	     -3.40597760	    -10.81012505	    -41.41997780	    -13.70228414	    124.97126043	    152.22323027	     -4.94369969	    -12.99899408	     41.88018057	    -15.46689594	    -39.73936290	    -19.33107433	    123.70641995	    157.76255687	    -16.90809359	     -9.21489025	     33.47467255
      1.43750000	      0.07660532	     20.76464676	    -89.86065899	     -0.04248478	      0.86424729	      0.71087429	     -8.65644332	     -6.57799768	     -6.65788524	    -12.99417776	     -6.48180137	     18.63064276	     50.77141286	     -7.79351380	    -10.66656238	    -11.72898276	    -13.19860428	    -16.00578161	     31.33069297	     59.99999993	    -12.32083777	     -0.79578622	     -0.24050428	    -11.64447676	      1.09823755	     -3.41700658	    -10.46750536	    -41.44106955	    -13.56147658	    124.79849063	    152.17709140	     -4.85145110	    -13.00384853	     41.90504169	    -15.14299131	    -39.77239655	    -19.17462474	    123.58345744	    157.73407522	    -16.72087646	     -9.18922620	     33.67722801
      1.44000000	      0.07367091	     20.75593503	    -89.86118993	     -0.04243886	      0.86435878	      0.71063161	     -8.65341361	     -6.57897660	     -6.65796180	    -12.99266280	     -6.48193704	     18.63039842	     50.77145176	     -7.79170376	    -10.66674103	    -11.72902286	    -13.19779030	    -16.00564825	     31.33063663	     59.99999993	    -12.31770424	     -0.79731045	     -0.24131974	    -11.64425347	      1.09785950	     -3.41706341	    -10.46627230	    -41.44220059	    -13.56286506	    124.79683044	    152.17692276	     -4.85093377	    -13.00340398	     41.90537929	    -15.14245823	    -39.77310014	    -19.17509141	    123.58172331	    157.73391283	    -16.71975591	     -9.18872545	     33.67867192
